# xmcd
#
# Track frame offsets:
#	150
#	37962
#	74195
#	113868
#	160688
#
# Disc length: 2903 seconds
#
# Revision: 0
# Processed by: cddbd v1.5.2PL0 Copyright (c) Steve Scherf et al.
# Submitted via: audiograbber 1.83.01
#
DISCID=3f0b5505
DTITLE=Grateful Dead - 93-04-01 Nassau Veterans Memorial Coliseum, Uniondale NY
DYEAR=1900
DGENRE=
TTITLE0=Iko Iko
TTITLE1=Saint Of Circumstance
TTITLE2=Crazy Fingers
TTITLE3=Wave To The Wind
TTITLE4=Drums
EXTD=
EXTT0=
EXTT1=
EXTT2=
EXTT3=
EXTT4=
PLAYORDER=
